<?xml version="1.0" encoding="UTF-8" standalone="no"?>
<!-- Created with Sodipodi ("http://www.sodipodi.com/") -->

<svg
   xmlns:dc="http://purl.org/dc/elements/1.1/"
   xmlns:cc="http://creativecommons.org/ns#"
   xmlns:rdf="http://www.w3.org/1999/02/22-rdf-syntax-ns#"
   xmlns:svg="http://www.w3.org/2000/svg"
   xmlns="http://www.w3.org/2000/svg"
   xmlns:xlink="http://www.w3.org/1999/xlink"
   xmlns:sodipodi="http://sodipodi.sourceforge.net/DTD/sodipodi-0.dtd"
   xmlns:inkscape="http://www.inkscape.org/namespaces/inkscape"
   id="svg171"
   sodipodi:version="0.32"
   width="358.84842"
   height="789.3559"
   sodipodi:docname="glibersat_Pigeau.svg"
   inkscape:version="0.48.2 r9819"
   version="1.0">
  <metadata
     id="metadata124">
    <rdf:RDF>
      <cc:Work
         rdf:about="">
        <dc:format>image/svg+xml</dc:format>
        <dc:type
           rdf:resource="http://purl.org/dc/dcmitype/StillImage" />
        <dc:title></dc:title>
      </cc:Work>
    </rdf:RDF>
  </metadata>
  <defs
     id="defs173">
    <linearGradient
       id="linearGradient239">
      <stop
         style="stop-color:#f8ce00;stop-opacity:1;"
         offset="0.000000"
         id="stop240" />
      <stop
         style="stop-color:#b79700;stop-opacity:1;"
         offset="1.000000"
         id="stop241" />
    </linearGradient>
    <linearGradient
       id="linearGradient231">
      <stop
         style="stop-color:#000;stop-opacity:1;"
         offset="0"
         id="stop232" />
      <stop
         style="stop-color:#fff;stop-opacity:1;"
         offset="1"
         id="stop233" />
    </linearGradient>
    <linearGradient
       xlink:href="#linearGradient239"
       id="linearGradient234"
       x1="0.55363399"
       y1="-0.125496"
       x2="0.570934"
       y2="1.33928"
       gradientUnits="objectBoundingBox"
       gradientTransform="translate(1.44297e-8,-1.13124e-6)"
       spreadMethod="pad" />
    <radialGradient
       xlink:href="#linearGradient239"
       id="radialGradient242"
       r="2.4611101"
       fy="0.47656199"
       fx="0.50877202"
       cy="0.47656199"
       cx="0.50877202"
       spreadMethod="pad"
       gradientUnits="objectBoundingBox" />
    <radialGradient
       xlink:href="#linearGradient239"
       id="radialGradient271"
       cx="0.46583599"
       cy="0.46094501"
       fx="0.46583599"
       fy="0.46094501"
       r="0.540039"
       gradientUnits="objectBoundingBox"
       spreadMethod="pad" />
    <radialGradient
       xlink:href="#linearGradient239"
       id="radialGradient273"
       cx="-0.80000901"
       cy="0.39843601"
       fx="-0.80000901"
       fy="0.39843601"
       r="0.201377"
       gradientUnits="objectBoundingBox"
       spreadMethod="pad" />
    <radialGradient
       xlink:href="#linearGradient239"
       id="radialGradient276" />
    <radialGradient
       xlink:href="#linearGradient239"
       id="radialGradient362" />
    <linearGradient
       xlink:href="#linearGradient239"
       id="linearGradient363" />
    <linearGradient
       xlink:href="#linearGradient239"
       id="linearGradient646" />
    <linearGradient
       inkscape:collect="always"
       xlink:href="#linearGradient239"
       id="linearGradient3181"
       gradientUnits="userSpaceOnUse"
       gradientTransform="matrix(2.280351,0,0,0.438529,-185.326,-121.8394)"
       spreadMethod="pad"
       x1="165.01989"
       y1="1956.5855"
       x2="166.88377"
       y2="2114.3986" />
    <radialGradient
       inkscape:collect="always"
       xlink:href="#linearGradient239"
       id="radialGradient3189"
       gradientUnits="userSpaceOnUse"
       gradientTransform="matrix(1.1693042,0,0,0.93775633,-273.0959,-147.5508)"
       spreadMethod="pad"
       cx="378.78614"
       cy="819.89654"
       fx="378.78614"
       fy="819.89654"
       r="115.38989" />
    <radialGradient
       inkscape:collect="always"
       xlink:href="#linearGradient239"
       id="radialGradient3193"
       gradientUnits="userSpaceOnUse"
       gradientTransform="matrix(1.5040599,0,0,0.74198665,-264.0421,-146.7071)"
       cx="294.42873"
       cy="598.62947"
       fx="294.42873"
       fy="598.62947"
       r="91.233506" />
    <radialGradient
       inkscape:collect="always"
       xlink:href="#linearGradient239"
       id="radialGradient3197"
       gradientUnits="userSpaceOnUse"
       gradientTransform="matrix(-0.39086003,0,0,3.6334335,703.375,-167.4708)"
       spreadMethod="pad"
       cx="897.24029"
       cy="153.65328"
       fx="897.24029"
       fy="153.65328"
       r="15.849248" />
    <radialGradient
       inkscape:collect="always"
       xlink:href="#linearGradient239"
       id="radialGradient3200"
       gradientUnits="userSpaceOnUse"
       gradientTransform="matrix(0.39086003,0,0,3.6334335,-342.997,-162.4708)"
       spreadMethod="pad"
       cx="897.24029"
       cy="153.65328"
       fx="897.24029"
       fy="153.65328"
       r="15.849248" />
    <radialGradient
       inkscape:collect="always"
       xlink:href="#linearGradient239"
       id="radialGradient3205"
       gradientUnits="userSpaceOnUse"
       gradientTransform="matrix(0.658029,0,0,1.51969,-252.1426,-111.817)"
       spreadMethod="pad"
       cx="657.7631"
       cy="319.37118"
       fx="657.7631"
       fy="319.37118"
       r="1269.346" />
  </defs>
  <sodipodi:namedview
     id="base"
     inkscape:zoom="0.71838386"
     inkscape:cx="190.00436"
     inkscape:cy="342.1668"
     inkscape:window-width="1052"
     inkscape:window-height="1008"
     inkscape:window-x="2531"
     inkscape:window-y="54"
     inkscape:current-layer="svg171"
     showgrid="false"
     inkscape:window-maximized="0" />
  <rect
     rx="8.5849104"
     style="font-size:12px;fill:#60585a;fill-opacity:1;fill-rule:evenodd;stroke-width:1pt"
     id="rect959"
     width="27.775"
     height="78.695648"
     x="16.286961"
     y="623.03802"
     ry="8.5849104" />
  <rect
     rx="8.5849104"
     style="font-size:12px;fill:#60585a;fill-opacity:1;fill-rule:evenodd;stroke-width:1pt"
     id="rect958"
     width="27.775"
     height="78.695648"
     x="311.28699"
     y="613.03802"
     ry="8.5849104" />
  <g
     id="g786"
     transform="matrix(-1,0,0,-1,282.646,766.1226)"
     style="fill:#4a00ad;fill-opacity:1">
    <path
       inkscape:connector-curvature="0"
       style="fill:#4a00ad;fill-opacity:1;fill-rule:nonzero;stroke:none"
       id="path787"
       d="m 76.616,699.191 c -5.4727,-0.321 -11.1367,-0.388 -16.567,0.34 -3.5734,0.712 -11.4734,3.767 -7.655,8.677 5.2454,5.042 14.5306,4.269 21.1612,3.703 l 0.5137,5.994 c -9.1289,0.75 -20.1652,0.992 -26.8406,-6.329 -5.9809,-9.521 3.3763,-16.399 12.0254,-18.017 5.7819,-0.733 11.5642,-0.349 17.3623,-0.688 l 0,6.32 z" />
    <path
       inkscape:connector-curvature="0"
       style="fill:#4a00ad;fill-opacity:1;fill-rule:nonzero;stroke:none"
       id="path788"
       d="m 76.616,699.191 c -5.4727,-0.321 -11.1367,-0.388 -16.567,0.34 -3.5734,0.712 -11.4734,3.767 -7.655,8.677 5.2454,5.042 14.5306,4.269 21.1612,3.703 l 0.5137,5.994 c -9.1289,0.75 -20.1652,0.992 -26.8406,-6.329 -5.9809,-9.521 3.3763,-16.399 12.0254,-18.017 5.7819,-0.733 11.5642,-0.349 17.3623,-0.688 l 0,6.32 z"
       transform="matrix(1,0,0,-1,0,1429.96)" />
    <path
       inkscape:connector-curvature="0"
       style="fill:#4a00ad;fill-opacity:1;fill-rule:nonzero;stroke:none"
       id="path789"
       d="m 97.4725,715.314 c -1.4986,-0.143 -3.0393,-0.081 -4.5417,-0.089 -1.2715,-0.004 -5.5397,-0.655 -6.3316,0.724 -0.2793,0.983 0.196,2.108 1.022,2.657 2.002,1.029 4.7046,0.505 6.8526,0.402 2.6281,-0.126 6.1922,-0.416 6.9952,2.782 0.249,2.611 -1.378,5.115 -3.4074,6.63 -2.6849,1.651 -5.7413,1.346 -8.7364,0.969 -1.7834,-0.237 -3.5619,-0.51 -5.3498,-0.711 l 0.3288,-2.76 c 1.7937,0.214 3.576,0.511 5.3666,0.748 2.19,0.268 4.7033,0.675 6.7086,-0.491 1.154,-0.815 2.2671,-2.318 2.2757,-3.791 0.0105,-1.097 -3.415,-0.664 -4.039,-0.633 -2.8978,0.155 -6.0482,0.623 -8.678,-0.876 -2.1183,-1.588 -3.0545,-4.623 -1.4109,-6.885 2.1458,-2.038 5.6768,-1.512 8.4036,-1.521 1.5024,-0.007 3.0431,0.055 4.5417,-0.088 l 0,2.933 z"
       transform="matrix(1.37761,0,0,1.37761,-36.3083,-268.329)" />
    <g
       id="g790"
       transform="matrix(1.16605,0,0,1.06243,-26.2102,-45.238)"
       style="fill:#4a00ad;fill-opacity:1">
      <path
         inkscape:connector-curvature="0"
         style="fill:#4a00ad;fill-opacity:1;fill-rule:nonzero;stroke:none"
         id="path791"
         d="m 109.26,713.835 c 2.054,0.228 4.181,0.138 6.242,0.15 3.888,0.015 7.776,-0.017 11.665,-0.034 0.779,-0.005 1.559,-0.011 2.338,-0.036 l 0,3.227 c -0.779,-0.026 -1.559,-0.032 -2.338,-0.037 -3.889,-0.017 -7.777,-0.049 -11.665,-0.034 -2.061,0.012 -4.188,-0.078 -6.242,0.15 l 0,-3.386 z" />
      <path
         inkscape:connector-curvature="0"
         style="fill:#4a00ad;fill-opacity:1;fill-rule:nonzero;stroke:none"
         id="path792"
         d="m 119.37,715.871 c -0.159,1.242 -0.079,2.551 -0.087,3.798 -0.011,2.488 -0.012,4.976 0.006,7.465 0.012,1.648 0.028,3.296 0.032,4.944 0.001,0.986 -0.002,1.973 -0.004,2.959 l -3.321,0 c -0.002,-0.986 -0.005,-1.973 -0.003,-2.959 0.003,-1.648 0.019,-3.296 0.031,-4.944 0.018,-2.489 0.018,-4.977 0.007,-7.465 -0.009,-1.247 0.072,-2.556 -0.088,-3.798 l 3.427,0 z"
         transform="translate(1.34464,0.336121)" />
    </g>
    <g
       id="g793"
       style="fill:#4a00ad;fill-opacity:1">
      <path
         inkscape:connector-curvature="0"
         style="fill:#4a00ad;fill-opacity:1;fill-rule:nonzero;stroke:none"
         id="path794"
         d="m 129.455,713.855 c -0.219,1.706 -0.114,3.502 -0.134,5.217 -0.046,4.31 -0.051,8.621 -0.008,12.932 0.017,1.411 0.038,2.823 0.066,4.234 l -3.275,0 c 0.027,-1.411 0.049,-2.823 0.066,-4.234 0.043,-4.311 0.037,-8.622 -0.008,-12.932 -0.021,-1.715 0.085,-3.511 -0.134,-5.217 l 3.427,0 z" />
      <path
         inkscape:connector-curvature="0"
         style="fill:#4a00ad;fill-opacity:1;fill-rule:nonzero;stroke:none"
         id="path795"
         d="m 127.413,712.827 c 1.41,0.156 2.863,0.074 4.28,0.113 3.027,0.138 5.689,1.021 6.086,4.411 0.091,3.395 -1.772,5.431 -5.069,6.06 -1.547,0.195 -3.059,0.136 -4.605,-0.029 l 0.353,-3.167 c 1.221,0.137 2.422,0.2 3.645,0.051 1.605,-0.296 2.418,-0.88 2.405,-2.576 -0.124,-1.535 -1.597,-1.488 -2.895,-1.55 -1.383,-0.028 -2.821,-0.081 -4.2,0.073 l 0,-3.386 z" />
      <path
         inkscape:connector-curvature="0"
         style="fill:#4a00ad;fill-opacity:1;fill-rule:nonzero;stroke:none"
         id="path796"
         d="m 128.757,721.903 c 1.223,0.136 2.492,0.072 3.72,0.082 2.638,0.021 5.597,-0.184 7.788,1.535 1.853,1.96 1.215,4.372 0.521,6.696 -0.472,1.573 -0.874,3.118 -0.925,4.767 -0.003,0.322 0,0.641 0.008,0.962 l -3.305,0.084 c -0.01,-0.383 -0.013,-0.765 -0.009,-1.148 0.062,-1.931 0.526,-3.743 1.082,-5.583 0.252,-0.844 0.953,-2.406 0.486,-3.29 -1.116,-1.268 -4.173,-0.813 -5.646,-0.801 -1.228,0.01 -2.497,-0.054 -3.72,0.082 l 0,-3.386 z" />
      <rect
         style="font-size:12px;fill:#4a00ad;fill-opacity:1;fill-rule:evenodd;stroke-width:1pt"
         id="rect797"
         width="2.3531401"
         height="3.02545"
         x="126.061"
         y="712.83899" />
    </g>
    <path
       inkscape:connector-curvature="0"
       style="font-size:12px;fill:#4a00ad;fill-opacity:1;fill-rule:evenodd;stroke-width:1pt"
       d="m 165.392,724.773 c 0,6.958 -5.196,12.606 -11.598,12.606 -6.402,0 -11.597,-5.648 -11.597,-12.606 0,-6.959 5.195,-12.606 11.597,-12.606 6.402,0 11.598,5.647 11.598,12.606 z m -3.698,-0.322 c 0,4.739 -3.54,8.586 -7.9,8.586 -4.361,0 -7.9,-3.847 -7.9,-8.586 0,-4.741 3.539,-8.587 7.9,-8.587 4.36,0 7.9,3.846 7.9,8.587 z"
       id="path798" />
  </g>
  <rect
     rx="8.5849104"
     style="font-size:12px;fill:#60585a;fill-opacity:1;fill-rule:evenodd;stroke-width:1pt"
     id="rect317"
     width="27.775"
     height="78.695648"
     x="318.78699"
     y="98.03804"
     ry="8.5849104" />
  <rect
     rx="8.5849104"
     style="font-size:12px;fill:#60585a;fill-opacity:1;fill-rule:evenodd;stroke-width:1pt"
     id="rect316"
     width="27.775"
     height="78.695648"
     x="8.6333046"
     y="101.12427"
     ry="8.5849104" />
  <path
     inkscape:connector-curvature="0"
     style="font-size:12px;fill:url(#radialGradient3205);fill-opacity:1;fill-rule:evenodd;stroke:#000000;stroke-width:1pt"
     d="m 178.7264,782.982 c -113.068,2.362 -130.402,-17.92 -147.106,-21.261 -16.705,-38.776 -19.877,-365.731 -9.855,-392.458 7.493,-60.54 -4.936,-70.565 -8.687,-143.526 -7.14,-85.213 9.815,-37.829 -4.439,-124.481 21.658,-90.216 -19.136,-92.053 168.522,-100.631 172.209,2.401 147.956,10.415 169.614,100.631 -14.254,86.652 2.701,39.268 -4.439,124.481 -3.751,72.961 -16.18,82.986 -8.687,143.526 10.022,26.727 6.85,353.682 -9.855,392.458 -26.153,15.153 -95.459,21.261 -145.068,21.261 z"
     id="path184"
     sodipodi:nodetypes="ccccccccccc" />
  <path
     inkscape:connector-curvature="0"
     style="fill:url(#radialGradient3200);fill-opacity:1;fill-rule:evenodd;stroke:none"
     d="m 41.536846,281.87867 c 0,0 21.53351,82.44164 21.53351,82.44164 0,0 0,154.57631 -3.075844,157.15332 -3.077146,2.57593 -27.686499,46.37213 -27.686499,46.37213 0,0 6.151687,-280.81414 9.228833,-285.96709 z"
     id="path272" />
  <path
     inkscape:connector-curvature="0"
     style="fill:url(#radialGradient3197);fill-opacity:1;fill-rule:evenodd;stroke:none"
     d="m 318.84115,276.87867 c 0,0 -21.53351,82.44164 -21.53351,82.44164 0,0 0,154.57631 3.07585,157.15332 3.07714,2.57593 27.6865,46.37213 27.6865,46.37213 0,0 -6.15169,-280.81414 -9.22884,-285.96709 z"
     id="path274" />
  <path
     inkscape:connector-curvature="0"
     style="fill:#f7ce00;fill-opacity:1;fill-rule:evenodd;stroke:#000000;stroke-width:1pt;stroke-linecap:butt;stroke-linejoin:miter;stroke-opacity:0.45911901"
     d="m 37.1984,44.521 c -11.667,18.667 -10.816,196.219 7.851,210.219 18.03,-14.851 122.476,-28.646 142.342,-27.364 20.288,-1.492 99.694,8.055 124.089,22.697 6.577,2.13 19.727,-205.553 1.059,-219.553 C 254.2044,14.187 60.5324,14.187 37.1984,44.521 z"
     id="path230"
     sodipodi:nodetypes="cccccc" />
  <path
     inkscape:connector-curvature="0"
     style="fill:url(#radialGradient3193);fill-opacity:1;fill-rule:evenodd;stroke:none"
     d="m 41.763616,257.38721 c 0,0 65.530014,-26.89747 138.643194,-27.58506 65.8331,-0.64088 95.56474,9.623 135.61035,25.01937 -4.85339,48.75588 -9.70781,94.9428 -21.84334,110.33917 C 182.53043,336.93366 175.25034,336.93474 63.606954,365.16178 61.180259,349.76541 39.33692,259.95291 41.763616,257.38721 z"
     id="path275"
     sodipodi:nodetypes="cscccc" />
  <path
     inkscape:connector-curvature="0"
     style="fill:#000000;fill-opacity:0.70440297;fill-rule:evenodd;stroke:#000000;stroke-width:1pt;stroke-linecap:butt;stroke-linejoin:miter;stroke-opacity:1"
     d="m 45.5104,260.195 c 0,0 63.783,-24.762 134.947,-25.395 64.078,-0.59 93.017,8.859 131.995,23.033 -4.724,44.885 -9.449,87.405 -21.261,101.579 -108.667,-25.986 -115.753,-25.985 -224.42,0.001 -2.362,-14.174 -23.623,-96.856 -21.261,-99.218 z"
     id="path185"
     sodipodi:nodetypes="cscccc" />
  <path
     inkscape:connector-curvature="0"
     style="fill:url(#radialGradient3189);fill-opacity:1;fill-rule:evenodd;stroke:none"
     d="m 75.697199,531.4265 c -12.368936,59.36816 -22.263456,173.15986 -22.263456,173.15986 19.790088,17.31567 121.211797,24.73683 123.685167,24.73683 7.42115,0 108.84391,-7.42116 126.15959,-32.15798 0,-14.8423 -9.89557,-121.2118 -19.79009,-168.21208 -86.57941,12.36789 -202.843427,7.42115 -207.791211,2.47337 z"
     id="path270"
     sodipodi:nodetypes="cccccc" />
  <path
     inkscape:connector-curvature="0"
     style="fill:#000000;fill-opacity:0.78616399;fill-rule:evenodd;stroke:#000000;stroke-width:1pt;stroke-linecap:butt;stroke-linejoin:miter;stroke-opacity:1"
     d="m 80.9454,536.588 c -11.812,56.695 -21.261,165.363 -21.261,165.363 18.899,16.536 115.754,23.623 118.116,23.623 7.087,0 103.943,-7.087 120.479,-30.71 0,-14.174 -9.45,-115.754 -18.899,-160.638 -82.681,11.811 -193.71,7.087 -198.435,2.362 z"
     id="path188"
     sodipodi:nodetypes="cccccc" />
  <path
     inkscape:connector-curvature="0"
     style="fill:#f7ce00;fill-opacity:1;fill-rule:evenodd;stroke:#000000;stroke-width:1.25;stroke-linecap:butt;stroke-linejoin:miter;stroke-opacity:0.5534592;stroke-dasharray:none"
     d="m 321.9024,279.094 c 0,0 28.348,2.362 28.348,2.362 0,0 14.174,14.174 4.725,21.261 -9.45,7.087 -33.073,-2.362 -33.073,-2.362 0,0 0,-16.536 0,-21.261 z"
     id="path189" />
  <path
     inkscape:connector-curvature="0"
     style="fill:#f7ce00;fill-opacity:1;fill-rule:evenodd;stroke:#000000;stroke-width:1pt;stroke-linecap:butt;stroke-linejoin:miter;stroke-opacity:0.54717"
     d="m 36.946,283.8187 c 0,0 -28.348,2.362 -28.348,2.362 0,0 -14.174,14.174 -4.725,21.261 9.45,7.087 33.073,-2.362 33.073,-2.362 0,0 0,-16.536 0,-21.261 z"
     id="path190" />
  <path
     inkscape:connector-curvature="0"
     style="fill:#2e87cf;fill-opacity:0.566038;fill-rule:evenodd;stroke:#000000;stroke-width:1.0820076pt;stroke-linecap:butt;stroke-linejoin:miter;stroke-opacity:0.25157201"
     d="M 52.581979,17.02534 C 43.558875,18.598469 33.262373,36.022549 37.998468,38.927091 49.278826,33.238469 71.325454,25.42117 92.982086,23.242565 97.267617,20.942707 103.11609,13.887009 103.34211,12.31388 88.454284,11.466689 62.424963,15.089243 52.581979,17.02534 z"
     id="path304"
     sodipodi:nodetypes="ccccc" />
  <path
     inkscape:connector-curvature="0"
     style="fill:#2e87cf;fill-opacity:0.566038;fill-rule:evenodd;stroke:#000000;stroke-width:1.0820076pt;stroke-linecap:butt;stroke-linejoin:miter;stroke-opacity:0.25157201"
     d="m 298.69502,12.11524 c 9.0231,1.573129 19.31961,14.632868 14.58351,17.53741 -11.28036,-5.688623 -33.32698,-7.505051 -54.98362,-9.683655 -4.28553,-2.299859 -10.134,-10.9920864 -10.36002,-12.5652148 14.88783,-0.8471911 40.91715,2.7753628 50.76013,4.7114598 z"
     id="path306"
     sodipodi:nodetypes="ccccc" />
  <path
     inkscape:connector-curvature="0"
     style="fill:none;stroke:#000000;stroke-width:1pt;stroke-linecap:butt;stroke-linejoin:miter;stroke-opacity:0.37106904"
     d="m 112.2854,10.38 c 37.098,-6.547 99.837,-6.002 126.569,-2.729"
     id="path307"
     sodipodi:nodetypes="cc" />
  <path
     inkscape:connector-curvature="0"
     style="fill:none;stroke:#000000;stroke-width:1pt;stroke-linecap:butt;stroke-linejoin:miter;stroke-opacity:0.37106904"
     d="m 112.2854,13.1078 c 37.098,-6.547 99.837,-6.002 126.569,-2.729"
     id="path308"
     sodipodi:nodetypes="cc" />
  <path
     inkscape:connector-curvature="0"
     style="fill:none;stroke:#000000;stroke-width:1pt;stroke-linecap:butt;stroke-linejoin:miter;stroke-opacity:0.37106904"
     d="m 112.2854,16.3811 c 37.098,-6.547 99.837,-6.002 126.569,-2.729"
     id="path309"
     sodipodi:nodetypes="cc" />
  <path
     inkscape:connector-curvature="0"
     style="fill:none;stroke:#000000;stroke-width:1pt;stroke-linecap:butt;stroke-linejoin:miter;stroke-opacity:0.37106904"
     d="m 112.2854,20.1999 c 37.098,-6.001 98.2,-4.911 124.387,-3.275"
     id="path310"
     sodipodi:nodetypes="cc" />
  <path
     inkscape:connector-curvature="0"
     style="fill:#000000;fill-opacity:0.68553503;fill-rule:evenodd;stroke:#000000;stroke-width:1pt;stroke-linecap:butt;stroke-linejoin:miter;stroke-opacity:1"
     d="m 43.1484,295.63 c 0,0 16.536,75.595 16.536,75.595 0,0 0,141.739 -2.362,144.102 -2.363,2.362 -21.261,42.521 -21.261,42.521 0,0 4.724,-257.493 7.087,-262.218 z"
     id="path186" />
  <path
     id="path211"
     style="fill:none;stroke:#000000;stroke-width:1pt;stroke-linecap:butt;stroke-linejoin:miter;stroke-opacity:1"
     d="m 36.35,310.5283 c -2.333,25.667 -14.991005,443.4545 4.666,443.345 69.85641,26.46665 221.62204,23.58419 278.5244,-7.0003 17.53027,-0.0711 6.999,-417.678 4.666,-443.345"
     inkscape:connector-curvature="0"
     sodipodi:nodetypes="cccc" />
  <path
     inkscape:connector-curvature="0"
     style="fill:#000000;fill-opacity:0.74842799;fill-rule:evenodd;stroke:#000000;stroke-width:1pt;stroke-linecap:butt;stroke-linejoin:miter;stroke-opacity:1"
     d="m 317.178,290.90542 c 0,0 -16.536,75.595 -16.536,75.595 0,0 0,141.739 2.362,144.102 2.363,2.362 21.261,42.521 21.261,42.521 0,0 -4.724,-257.493 -7.087,-262.218 z"
     id="path187" />
</svg>
